<?xml version="1.0"?>
<svg xmlns="http://www.w3.org/2000/svg" xmlns:xlink="http://www.w3.org/1999/xlink" xmlns:svgjs="http://svgjs.com/svgjs" version="1.1" width="512" height="512" x="0" y="0" viewBox="0 0 512 512" style="enable-background:new 0 0 512 512" xml:space="preserve" class=""><g><g xmlns="http://www.w3.org/2000/svg"><g><path d="m448.891 0h-385.782c-34.798 0-63.109 28.311-63.109 63.109v385.782c0 34.798 28.311 63.109 63.109 63.109h385.782c34.798 0 63.109-28.311 63.109-63.109v-385.782c0-34.798-28.311-63.109-63.109-63.109zm48.109 448.891c0 26.527-21.582 48.109-48.109 48.109h-385.782c-26.527 0-48.109-21.582-48.109-48.109v-385.782c0-26.527 21.582-48.109 48.109-48.109h385.782c26.527 0 48.109 21.582 48.109 48.109z" fill="#e30613" data-original="#000000" style="" class=""/><path d="m470.5 130.16c-4.142 0-7.5 3.358-7.5 7.5v311.231c0 7.78-6.329 14.109-14.109 14.109h-385.782c-7.78 0-14.109-6.329-14.109-14.109v-39.36c0-4.142-3.358-7.5-7.5-7.5s-7.5 3.358-7.5 7.5v39.36c0 16.051 13.058 29.109 29.109 29.109h385.782c16.051 0 29.109-13.058 29.109-29.109v-311.231c0-4.142-3.358-7.5-7.5-7.5z" fill="#e30613" data-original="#000000" style="" class=""/><path d="m448.891 34h-385.782c-16.051 0-29.109 13.058-29.109 29.109v311.36c0 4.142 3.358 7.5 7.5 7.5s7.5-3.358 7.5-7.5v-311.36c0-7.78 6.329-14.109 14.109-14.109h385.782c7.78 0 14.109 6.329 14.109 14.109v39.488c0 4.142 3.358 7.5 7.5 7.5s7.5-3.358 7.5-7.5v-39.488c0-16.051-13.058-29.109-29.109-29.109z" fill="#e30613" data-original="#000000" style="" class=""/><path d="m203.484 208.794 15.621-10.094c16.545-10.691 18.979-33.897 5.079-47.798l-40.034-40.035c-13.028-13.028-34.525-11.817-46.019 2.601-19.677 24.681-44.576 61.507-33.666 96.22 13.246 42.146 39.815 83.992 76.835 121.012 22.963 22.963 47.708 41.882 73.549 56.23 3.621 2.011 8.187.706 10.198-2.917 2.011-3.621.705-8.187-2.917-10.198-24.621-13.671-48.248-31.746-70.224-53.722-35.319-35.319-60.607-75.051-73.132-114.902-8.766-27.892 13.542-60.369 31.084-82.372 5.906-7.408 16.929-8.099 23.684-1.345l40.034 40.035c7.166 7.167 5.882 19.103-2.613 24.593l-15.621 10.094c-10.177 6.574-12.866 20.255-5.92 30.211 12.758 18.284 27.535 35.863 43.92 52.249 16.386 16.386 33.965 31.163 52.249 43.92 9.888 6.9 23.597 4.318 30.211-5.92l10.094-15.621c5.501-8.513 17.439-9.765 24.593-2.613l40.035 40.034c6.722 6.722 6.095 17.753-1.345 23.684-22.003 17.542-54.481 39.852-82.373 31.084-4.527-1.422-9.126-3.037-13.671-4.8-3.864-1.5-8.207.418-9.705 4.28s.418 8.207 4.28 9.705c4.849 1.881 9.761 3.605 14.599 5.125 5.854 1.84 11.767 2.661 17.672 2.661 29.115 0 58.029-19.968 78.547-36.327 14.408-11.487 15.638-32.981 2.601-46.019l-40.035-40.034c-13.929-13.929-37.129-11.432-47.798 5.079l-10.094 15.621c-1.981 3.066-6.077 3.817-9.029 1.759-17.562-12.254-34.461-26.461-50.226-42.225-15.764-15.765-29.971-32.663-42.225-50.226-2.064-2.962-1.292-7.055 1.762-9.029z" fill="#e30613" data-original="#000000" style="" class=""/></g></g></g></svg>
